{
  "accessors": [
    {
      "bufferView": 2,
      "componentType": 5126,
      "count": 6774,
      "max": [
        3.1278798580169678,
        137.71876525878906,
        174.23764038085938
      ],
      "min": [
        -90.8427734375,
        1.2716830968856812,
        -217.87478637695312
      ],
      "type": "VEC3"
    },
    {
      "bufferView": 2,
      "byteOffset": 81288,
      "componentType": 5126,
      "count": 6774,
      "max": [
        1,
        1,
        1
      ],
      "min": [
        -1,
        -1,
        -1
      ],
      "type": "VEC3"
    },
    {
      "bufferView": 3,
      "componentType": 5126,
      "count": 6774,
      "max": [
        1,
        0.99990987777709961,
        1,
        1
      ],
      "min": [
        -1,
        -0.9999462366104126,
        -1,
        -1
      ],
      "type": "VEC4"
    },
    {
      "bufferView": 0,
      "componentType": 5125,
      "count": 24774,
      "max": [
        6773
      ],
      "min": [
        0
      ],
      "type": "SCALAR"
    },
    {
      "bufferView": 2,
      "byteOffset": 162576,
      "componentType": 5126,
      "count": 5190,
      "max": [
        -9.3044290542602539,
        75.703155517578125,
        130.53070068359375
      ],
      "min": [
        -78.311607360839844,
        36.547874450683594,
        65.89739990234375
      ],
      "type": "VEC3"
    },
    {
      "bufferView": 2,
      "byteOffset": 224856,
      "componentType": 5126,
      "count": 5190,
      "max": [
        1,
        0.99999982118606567,
        0.99902379512786865
      ],
      "min": [
        -1,
        -0.99982362985610962,
        -0.99696409702301025
      ],
      "type": "VEC3"
    },
    {
      "bufferView": 3,
      "byteOffset": 108384,
      "componentType": 5126,
      "count": 5190,
      "max": [
        1,
        0.999977707862854,
        0.99546372890472412,
        1
      ],
      "min": [
        -1,
        -0.93807739019393921,
        -0.99999940395355225,
        -1
      ],
      "type": "VEC4"
    },
    {
      "bufferView": 1,
      "componentType": 5126,
      "count": 5190,
      "max": [
        1,
        1
      ],
      "min": [
        0,
        0
      ],
      "type": "VEC2"
    },
    {
      "bufferView": 0,
      "byteOffset": 99096,
      "componentType": 5125,
      "count": 18864,
      "max": [
        5189
      ],
      "min": [
        0
      ],
      "type": "SCALAR"
    },
    {
      "bufferView": 2,
      "byteOffset": 287136,
      "componentType": 5126,
      "count": 35181,
      "max": [
        13.253166198730469,
        135.90693664550781,
        174.48818969726562
      ],
      "min": [
        -99.660499572753906,
        3.6986160278320312,
        -220.29302978515625
      ],
      "type": "VEC3"
    },
    {
      "bufferView": 2,
      "byteOffset": 709308,
      "componentType": 5126,
      "count": 35181,
      "max": [
        1,
        1,
        1
      ],
      "min": [
        -1,
        -1,
        -1
      ],
      "type": "VEC3"
    },
    {
      "bufferView": 3,
      "byteOffset": 191424,
      "componentType": 5126,
      "count": 35181,
      "max": [
        1,
        1,
        1,
        1
      ],
      "min": [
        -1,
        -1,
        -1,
        -1
      ],
      "type": "VEC4"
    },
    {
      "bufferView": 1,
      "byteOffset": 41520,
      "componentType": 5126,
      "count": 35181,
      "max": [
        2.1762669086456299,
        1
      ],
      "min": [
        -0.010164001025259495,
        -0.66819804906845093
      ],
      "type": "VEC2"
    },
    {
      "bufferView": 0,
      "byteOffset": 174552,
      "componentType": 5125,
      "count": 158838,
      "max": [
        35180
      ],
      "min": [
        0
      ],
      "type": "SCALAR"
    },
    {
      "bufferView": 2,
      "byteOffset": 1131480,
      "componentType": 5126,
      "count": 2158,
      "max": [
        -3.3863530158996582,
        85.20477294921875,
        174.00912475585938
      ],
      "min": [
        -84.323532104492188,
        27.245256423950195,
        72.818748474121094
      ],
      "type": "VEC3"
    },
    {
      "bufferView": 2,
      "byteOffset": 1157376,
      "componentType": 5126,
      "count": 2158,
      "max": [
        0.99998384714126587,
        0.99242556095123291,
        0.95680397748947144
      ],
      "min": [
        -0.99998384714126587,
        -0.99242562055587769,
        -0.95681679248809814
      ],
      "type": "VEC3"
    },
    {
      "bufferView": 3,
      "byteOffset": 754320,
      "componentType": 5126,
      "count": 2158,
      "max": [
        0.99292010068893433,
        0.82948505878448486,
        0.99882310628890991,
        1
      ],
      "min": [
        -0.99292010068893433,
        -0.95681685209274292,
        -0.99967211484909058,
        -1
      ],
      "type": "VEC4"
    },
    {
      "bufferView": 1,
      "byteOffset": 322968,
      "componentType": 5126,
      "count": 2158,
      "max": [
        1.0106508731842041,
        1.1132351160049438
      ],
      "min": [
        -0.0011789998970925808,
        0
      ],
      "type": "VEC2"
    },
    {
      "bufferView": 0,
      "byteOffset": 809904,
      "componentType": 5125,
      "count": 9636,
      "max": [
        2157
      ],
      "min": [
        0
      ],
      "type": "SCALAR"
    },
    {
      "bufferView": 2,
      "byteOffset": 1183272,
      "componentType": 5126,
      "count": 4942,
      "max": [
        149.85592651367188,
        119.49079895019531,
        220.29296875
      ],
      "min": [
        -149.85586547851562,
        92.250732421875,
        -121.89103698730469
      ],
      "type": "VEC3"
    },
    {
      "bufferView": 2,
      "byteOffset": 1242576,
      "componentType": 5126,
      "count": 4942,
      "max": [
        1,
        1,
        1
      ],
      "min": [
        -1,
        -1,
        -1
      ],
      "type": "VEC3"
    },
    {
      "bufferView": 3,
      "byteOffset": 788848,
      "componentType": 5126,
      "count": 4942,
      "max": [
        1,
        0.99958980083465576,
        1,
        1
      ],
      "min": [
        -1,
        -1,
        -1,
        -1
      ],
      "type": "VEC4"
    },
    {
      "bufferView": 1,
      "byteOffset": 340232,
      "componentType": 5126,
      "count": 4942,
      "max": [
        1.0833331346511841,
        1
      ],
      "min": [
        0,
        0
      ],
      "type": "VEC2"
    },
    {
      "bufferView": 0,
      "byteOffset": 848448,
      "componentType": 5125,
      "count": 12723,
      "max": [
        4941
      ],
      "min": [
        0
      ],
      "type": "SCALAR"
    },
    {
      "bufferView": 2,
      "byteOffset": 1301880,
      "componentType": 5126,
      "count": 2102,
      "max": [
        -39.177005767822266,
        92.463676452636719,
        -163.2003173828125
      ],
      "min": [
        -46.155845642089844,
        53.059867858886719,
        -202.71060180664062
      ],
      "type": "VEC3"
    },
    {
      "bufferView": 2,
      "byteOffset": 1327104,
      "componentType": 5126,
      "count": 2102,
      "max": [
        0.99996906518936157,
        0.99971675872802734,
        1
      ],
      "min": [
        -1,
        -0.99974411725997925,
        -1
      ],
      "type": "VEC3"
    },
    {
      "bufferView": 3,
      "byteOffset": 867920,
      "componentType": 5126,
      "count": 2102,
      "max": [
        1,
        0.99912130832672119,
        0.99880486726760864,
        1
      ],
      "min": [
        -1,
        -0.99999904632568359,
        -0.99880474805831909,
        -1
      ],
      "type": "VEC4"
    },
    {
      "bufferView": 1,
      "byteOffset": 379768,
      "componentType": 5126,
      "count": 2102,
      "max": [
        0.91666698455810547,
        2.8970179557800293
      ],
      "min": [
        -0.37872999906539917,
        -3.0633928775787354
      ],
      "type": "VEC2"
    },
    {
      "bufferView": 0,
      "byteOffset": 899340,
      "componentType": 5125,
      "count": 6096,
      "max": [
        2101
      ],
      "min": [
        0
      ],
      "type": "SCALAR"
    }
  ],
  "asset": {
    "generator": "Sketchfab (OSG glTF plugin)",
    "version": "2.0"
  },
  "bufferViews": [
    {
      "buffer": 0,
      "byteLength": 923724,
      "byteOffset": 0,
      "name": "floatBufferViews",
      "target": 34963
    },
    {
      "buffer": 0,
      "byteLength": 396584,
      "byteOffset": 923724,
      "byteStride": 8,
      "name": "floatBufferViews",
      "target": 34962
    },
    {
      "buffer": 0,
      "byteLength": 1352328,
      "byteOffset": 1320308,
      "byteStride": 12,
      "name": "floatBufferViews",
      "target": 34962
    },
    {
      "buffer": 0,
      "byteLength": 901552,
      "byteOffset": 2672636,
      "byteStride": 16,
      "name": "floatBufferViews",
      "target": 34962
    }
  ],
  "buffers": [
    {
      "byteLength": 3574188,
      "uri": "scene.bin"
    }
  ],
  "images": [
    {
      "uri": "textures/glass_baseColor.png"
    },
    {
      "uri": "textures/interior_baseColor.jpeg"
    },
    {
      "uri": "textures/elise_baseColor.jpeg"
    },
    {
      "uri": "textures/body_baseColor.jpeg"
    },
    {
      "uri": "textures/rotor_baseColor.jpeg"
    }
  ],
  "materials": [
    {
      "doubleSided": true,
      "emissiveFactor": [
        0,
        0,
        0
      ],
      "name": "black",
      "pbrMetallicRoughness": {
        "baseColorFactor": [
          1,
          1,
          1,
          1
        ],
        "metallicFactor": 1,
        "roughnessFactor": 0.19999999999999996
      }
    },
    {
      "doubleSided": true,
      "emissiveFactor": [
        0,
        0,
        0
      ],
      "name": "interior",
      "pbrMetallicRoughness": {
        "baseColorFactor": [
          1,
          1,
          1,
          1
        ],
        "baseColorTexture": {
          "index": 1,
          "texCoord": 0
        },
        "metallicFactor": 0,
        "roughnessFactor": 1
      }
    },
    {
      "doubleSided": true,
      "emissiveFactor": [
        0,
        0,
        0
      ],
      "name": "body",
      "pbrMetallicRoughness": {
        "baseColorFactor": [
          1,
          1,
          1,
          1
        ],
        "baseColorTexture": {
          "index": 3,
          "texCoord": 0
        },
        "metallicFactor": 0,
        "roughnessFactor": 0
      }
    },
    {
      "alphaMode": "BLEND",
      "doubleSided": true,
      "emissiveFactor": [
        0,
        0,
        0
      ],
      "name": "glass",
      "pbrMetallicRoughness": {
        "baseColorFactor": [
          1,
          1,
          1,
          0.5
        ],
        "baseColorTexture": {
          "index": 0,
          "texCoord": 0
        },
        "metallicFactor": 0.5,
        "roughnessFactor": 0
      }
    },
    {
      "doubleSided": true,
      "emissiveFactor": [
        0,
        0,
        0
      ],
      "name": "elise",
      "pbrMetallicRoughness": {
        "baseColorFactor": [
          1,
          1,
          1,
          1
        ],
        "baseColorTexture": {
          "index": 2,
          "texCoord": 0
        },
        "metallicFactor": 1,
        "roughnessFactor": 0.40000000000000002
      }
    },
    {
      "doubleSided": true,
      "emissiveFactor": [
        0,
        0,
        0
      ],
      "name": "rotor",
      "pbrMetallicRoughness": {
        "baseColorFactor": [
          1,
          1,
          1,
          1
        ],
        "baseColorTexture": {
          "index": 4,
          "texCoord": 0
        },
        "metallicFactor": 1,
        "roughnessFactor": 0.19999999999999996
      }
    }
  ],
  "meshes": [
    {
      "name": "helicopter.Shape_black_0",
      "primitives": [
        {
          "attributes": {
            "NORMAL": 1,
            "POSITION": 0,
            "TANGENT": 2
          },
          "indices": 3,
          "material": 0,
          "mode": 4
        }
      ]
    },
    {
      "name": "helicopter.Shape_interior_0",
      "primitives": [
        {
          "attributes": {
            "NORMAL": 5,
            "POSITION": 4,
            "TANGENT": 6,
            "TEXCOORD_0": 7
          },
          "indices": 8,
          "material": 1,
          "mode": 4
        }
      ]
    },
    {
      "name": "helicopter.Shape_body_0",
      "primitives": [
        {
          "attributes": {
            "NORMAL": 10,
            "POSITION": 9,
            "TANGENT": 11,
            "TEXCOORD_0": 12
          },
          "indices": 13,
          "material": 2,
          "mode": 4
        }
      ]
    },
    {
      "name": "helicopter.Shape_glass_0",
      "primitives": [
        {
          "attributes": {
            "NORMAL": 15,
            "POSITION": 14,
            "TANGENT": 16,
            "TEXCOORD_0": 17
          },
          "indices": 18,
          "material": 3,
          "mode": 4
        }
      ]
    },
    {
      "name": "helicopter.Shape_elise_0",
      "primitives": [
        {
          "attributes": {
            "NORMAL": 20,
            "POSITION": 19,
            "TANGENT": 21,
            "TEXCOORD_0": 22
          },
          "indices": 23,
          "material": 4,
          "mode": 4
        }
      ]
    },
    {
      "name": "helicopter.Shape_rotor_0",
      "primitives": [
        {
          "attributes": {
            "NORMAL": 25,
            "POSITION": 24,
            "TANGENT": 26,
            "TEXCOORD_0": 27
          },
          "indices": 28,
          "material": 5,
          "mode": 4
        }
      ]
    }
  ],
  "nodes": [
    {
      "children": [
        1
      ],
      "name": "RootNode (gltf orientation matrix)",
      "rotation": [
        -0.70710678118654746,
        -0,
        -0,
        0.70710678118654757
      ]
    },
    {
      "children": [
        2
      ],
      "name": "RootNode (model correction matrix)"
    },
    {
      "children": [
        3
      ],
      "matrix": [
        1,
        0,
        0,
        0,
        0,
        0,
        1,
        0,
        0,
        -1,
        0,
        0,
        0,
        0,
        0,
        1
      ],
      "name": "5c4b48e0350f4f45a5efa407b76671e9.fbx"
    },
    {
      "children": [
        4
      ],
      "name": "RootNode"
    },
    {
      "children": [
        5
      ],
      "name": "helicopter"
    },
    {
      "children": [
        6
      ],
      "name": "helicopter.Shape"
    },
    {
      "children": [
        7,
        8,
        9,
        10,
        11,
        12
      ],
      "name": "Geode"
    },
    {
      "mesh": 0,
      "name": "helicopter.Shape_black_0"
    },
    {
      "mesh": 1,
      "name": "helicopter.Shape_interior_0"
    },
    {
      "mesh": 2,
      "name": "helicopter.Shape_body_0"
    },
    {
      "mesh": 3,
      "name": "helicopter.Shape_glass_0"
    },
    {
      "mesh": 4,
      "name": "helicopter.Shape_elise_0"
    },
    {
      "mesh": 5,
      "name": "helicopter.Shape_rotor_0"
    }
  ],
  "samplers": [
    {
      "magFilter": 9729,
      "minFilter": 9987,
      "wrapS": 10497,
      "wrapT": 10497
    }
  ],
  "scene": 0,
  "scenes": [
    {
      "name": "OSG_Scene",
      "nodes": [
        0
      ]
    }
  ],
  "textures": [
    {
      "sampler": 0,
      "source": 0
    },
    {
      "sampler": 0,
      "source": 1
    },
    {
      "sampler": 0,
      "source": 2
    },
    {
      "sampler": 0,
      "source": 3
    },
    {
      "sampler": 0,
      "source": 4
    }
  ]
}

